<svg width="120" height="29" fill="currentColor" xmlns="http://www.w3.org/2000/svg"><path d="M9.935 17.51c-1.54 1.268-2.792 2.137-3.687 2.608-.895.471-1.79.725-2.613.725-1.145 0-1.825-.544-2.004-1.63-.18-1.05-.072-2.608.394-4.6.43-1.992 1.038-4.419 1.79-7.208.286-1.05.572-2.137.894-3.296.107-.47.25-.941.394-1.412L5.46 1.32c.071-.326 0-.58-.18-.688-.214-.108-.465-.108-.715 0-.25.109-.43.362-.537.688l-.394 1.377c-.107.47-.25.941-.358 1.412a120.404 120.404 0 0 1-.859 3.115C1.523 10.52.843 13.31.378 15.518c-.465 2.246-.501 3.948-.107 5.071.358 1.123 1.36 1.703 2.97 1.703 1.182 0 2.363-.327 3.472-.942 1.11-.616 2.434-1.558 3.974-2.825.286-.254.429-.471.393-.725-.036-.253-.179-.398-.393-.507-.215-.072-.466 0-.752.218Z"/><path d="M22.14 17.583c-2.505 2.282-4.51 3.368-6.013 3.224-.859-.11-1.288-.544-1.288-1.268-.036-.688.107-1.521.393-2.427l.072-.217c.036-.326 0-.543-.18-.652-.178-.109-.393-.109-.644-.036-.25.072-.429.253-.572.543-.609 1.123-1.146 1.992-1.575 2.572-.43.615-.752 1.014-1.002 1.195-.25.217-.43.326-.501.326-.036 0-.108 0-.143-.037a.197.197 0 0 1-.18-.108.787.787 0 0 1-.071-.362c0-.362.107-.76.322-1.232.179-.434.394-.797.644-1.086.25-.29.43-.363.609-.218.179.181.43.218.68.109.25-.109.465-.29.608-.543.108-.254.108-.471-.071-.689-.537-.543-1.146-.615-1.826-.253-.68.362-1.252.942-1.718 1.775-.5.833-.751 1.702-.751 2.571.071 1.014.572 1.521 1.503 1.521.895 0 1.861-.724 2.9-2.136.107.76.393 1.303.858 1.63.465.325 1.074.506 1.861.506 1.898 0 4.224-1.267 6.944-3.766.25-.254.358-.507.322-.76a.65.65 0 0 0-.43-.436c-.25-.072-.5 0-.75.254Z"/><path d="M36.243 17.583c-2.47 2.282-4.474 3.368-5.978 3.224-.823-.11-1.253-.508-1.288-1.16-.036-.651.071-1.412.322-2.245.036-.181.072-.326.107-.507.072-.326.036-.543-.143-.652-.179-.109-.394-.109-.644-.073-.25.073-.43.254-.609.544-1.467 2.752-2.792 4.129-4.044 4.129-.394 0-.645-.218-.716-.652-.072-.435-.036-.942.107-1.521.143-.58.322-1.123.501-1.594.108-.326.108-.543-.071-.688-.18-.145-.43-.181-.68-.109-.25.073-.466.254-.609.58a9.296 9.296 0 0 0-.716 2.571c-.107.833 0 1.485.25 2.029.251.543.788.832 1.576.832.322 0 .859-.144 1.539-.398.68-.253 1.467-.905 2.326-1.883.036.796.323 1.376.788 1.738.465.362 1.11.543 1.933.543 1.897 0 4.223-1.267 6.908-3.766.25-.254.358-.507.322-.76-.036-.218-.18-.363-.394-.436-.25-.072-.5 0-.787.254Z"/><path d="M47.911 17.33c-.966.543-1.933.941-2.935 1.122-1.038.218-1.79.29-2.29.181-.287-.072-.502-.217-.609-.47a5.209 5.209 0 0 1-.286-.797c-.072-.399-.18-.725-.358-1.014-.18-.29-.537-.435-1.074-.435-.644 0-1.217.253-1.682.76a9.783 9.783 0 0 0-1.253 1.848c.107-.471.25-.978.43-1.594.035-.326-.036-.543-.215-.652-.215-.109-.43-.109-.68 0-.251.109-.466.326-.573.652-.537 1.92-.823 3.332-.86 4.165-.07.87.18 1.304.788 1.304.394 0 .752-.18 1.002-.58.251-.361.502-.869.752-1.52.143-.326.322-.689.573-1.16.215-.434.43-.833.68-1.231.25-.362.465-.543.644-.543.108 0 .18.072.215.18.036.11.107.29.143.472.108.398.25.796.501 1.195.215.398.609.688 1.181.833.68.145 1.647.072 2.9-.181a12.094 12.094 0 0 0 3.543-1.34c.322-.181.465-.435.501-.688a.707.707 0 0 0-.286-.58c-.179-.109-.43-.109-.752.072Z"/><path d="M60.153 17.583c-2.506 2.282-4.51 3.368-6.014 3.224-.859-.11-1.288-.544-1.288-1.268-.036-.688.107-1.521.394-2.427l.071-.217c.036-.326 0-.543-.179-.652-.179-.109-.394-.109-.644-.036-.25.072-.43.253-.573.543-.608 1.123-1.145 1.992-1.575 2.572-.43.615-.751 1.014-1.002 1.195-.25.217-.43.326-.501.326-.036 0-.108 0-.143-.037a.196.196 0 0 1-.18-.108.787.787 0 0 1-.07-.362c0-.362.107-.76.321-1.232.18-.434.394-.797.645-1.086.25-.29.43-.363.608-.218.179.181.43.218.68.109.25-.109.465-.29.609-.543.107-.254.107-.471-.072-.689-.537-.543-1.145-.615-1.825-.253-.68.362-1.253.942-1.718 1.775-.502.833-.752 1.702-.752 2.571.072 1.014.573 1.521 1.503 1.521.895 0 1.861-.724 2.9-2.136.107.76.393 1.303.858 1.63.466.325 1.074.506 1.862.506 1.897 0 4.223-1.267 6.944-3.766.25-.254.358-.507.322-.76a.65.65 0 0 0-.43-.436c-.25-.072-.5 0-.752.254Z"/><path d="M75.973 17.438c-.25.181-.501.399-.752.58A37.496 37.496 0 0 1 72.61 19.9c-.967.616-1.79.942-2.542.942-.465 0-.751-.145-.895-.399-.179-.253-.25-.76-.25-1.448.036-.399 0-.797-.036-1.232a2.206 2.206 0 0 0-.501-1.05c-.25-.29-.716-.435-1.324-.435-.895 0-1.898.362-2.936 1.087a29.068 29.068 0 0 0-3.185 2.68c.179-.688.358-1.376.537-2.028.107-.399.215-.725.286-1.015.072-.326 0-.543-.179-.651-.215-.11-.465-.11-.716 0-.25.108-.43.325-.537.651-.107.326-.214.689-.322 1.087-.179.652-.322 1.304-.5 1.956a8.677 8.677 0 0 0-.287 1.557c-.036.471.107.725.43.833.286.11.68-.036 1.145-.47a59.07 59.07 0 0 1 3.221-2.934c1.038-.87 1.933-1.304 2.649-1.304.322 0 .537.108.644.326.107.253.143.688.143 1.34-.035.398 0 .833.072 1.268.072.47.25.833.573 1.159.322.326.823.47 1.575.47 1.002 0 2.04-.362 3.15-1.05a34.03 34.03 0 0 0 3.113-2.173c.25-.181.466-.362.716-.543.286-.254.43-.471.43-.725-.036-.253-.144-.398-.358-.507-.215-.108-.466-.036-.752.145Z"/><path d="M88.214 17.583c-2.505 2.282-4.51 3.368-6.013 3.224-.859-.11-1.288-.544-1.288-1.268-.036-.688.107-1.521.393-2.427l.072-.217c.036-.326 0-.543-.18-.652-.178-.109-.393-.109-.643-.036-.251.072-.43.253-.573.543-.609 1.123-1.145 1.992-1.575 2.572-.43.615-.752 1.014-1.002 1.195-.25.217-.43.326-.501.326-.036 0-.108 0-.144-.037a.197.197 0 0 1-.178-.108.787.787 0 0 1-.072-.362c0-.362.107-.76.322-1.232.18-.434.394-.797.644-1.086.25-.29.43-.363.609-.218.179.181.43.218.68.109.25-.109.465-.29.608-.543.108-.254.108-.471-.071-.689-.537-.543-1.146-.615-1.826-.253-.68.362-1.252.942-1.718 1.775-.5.833-.751 1.702-.751 2.571.071 1.014.572 1.521 1.503 1.521.895 0 1.861-.724 2.9-2.136.107.76.393 1.303.858 1.63.466.325 1.074.506 1.861.506 1.897 0 4.224-1.267 6.944-3.766.25-.254.358-.507.323-.76a.65.65 0 0 0-.43-.436c-.25-.072-.501 0-.752.254Z"/><path d="M89.646 15.193h-.072c-.178-.037-.322-.11-.393-.29-.108-.145-.108-.326-.036-.507.036-.145.072-.29.107-.399h.036c.072-.29.18-.615.358-.941.107-.181.25-.363.43-.471.178-.109.358-.145.536-.109a.555.555 0 0 1 .394.29.587.587 0 0 1-.036.543l-.286.797-.143.434c-.072.182-.18.363-.358.471-.179.11-.358.182-.537.182Zm7.016 2.39c-2.47 2.282-4.475 3.368-5.978 3.224-.752-.11-1.181-.471-1.253-1.16-.071-.688.036-1.52.358-2.535.072-.398 0-.652-.179-.76-.179-.11-.43-.11-.68 0-.286.108-.5.362-.608.76-.287.978-.43 1.884-.43 2.644 0 .76.215 1.377.609 1.847.393.471 1.11.688 2.111.688 1.898 0 4.224-1.267 6.909-3.766.25-.254.357-.507.322-.76-.036-.218-.18-.363-.394-.436-.25-.072-.501 0-.787.254Z"/><path d="M106.505 17.51c-1.54 1.268-2.792 2.137-3.687 2.608-.895.471-1.79.725-2.613.725-1.145 0-1.826-.544-2.004-1.63-.18-1.05-.072-2.608.393-4.6.43-1.992 1.038-4.419 1.79-7.208.286-1.05.573-2.137.895-3.296.107-.47.25-.941.393-1.412l.358-1.377c.072-.326 0-.58-.179-.688-.214-.108-.465-.108-.715 0-.251.109-.43.362-.537.688l-.394 1.377c-.107.47-.25.941-.358 1.412a120.007 120.007 0 0 1-.859 3.115c-.895 3.296-1.575 6.085-2.04 8.294-.465 2.246-.501 3.948-.108 5.071.358 1.123 1.36 1.703 2.971 1.703 1.181 0 2.363-.327 3.472-.942 1.11-.616 2.434-1.558 3.973-2.825.287-.254.43-.471.394-.725-.036-.253-.179-.398-.394-.507-.215-.072-.465 0-.751.218Z"/><path d="M109.547 25.044c-1.145 1.014-2.112 1.594-2.899 1.739-.788.145-1.181.072-1.217-.254.036-.362.286-.76.751-1.195.466-.435.967-.87 1.54-1.268.536-.398 1.002-.724 1.395-.941.215.253.394.58.573.941.179.363.108.688-.143.978Zm9.664-7.896c-3.543 1.232-6.693 2.608-9.485 4.166-.251-.254-.465-.508-.716-.761a9.202 9.202 0 0 1-1.038-1.159c-.25-.398-.358-.76-.286-1.05.071-.29.214-.544.393-.725.394-.434.931-.797 1.611-1.086.644-.29 1.217-.435 1.718-.435.466 0 .68.217.609.652-.072.326 0 .507.214.616.179.108.43.108.681 0 .25-.109.429-.29.536-.616.251-1.05-.035-1.702-.787-1.956s-1.682-.181-2.792.217c-1.109.399-2.076 1.015-2.863 1.884-.967 1.195-1.11 2.39-.358 3.513.322.398.68.833 1.145 1.304.179.145.322.29.465.435a15.664 15.664 0 0 0-2.756 2.064c-.93.833-1.467 1.703-1.575 2.608 0 1.05.645 1.521 1.969 1.485 1.289-.036 2.792-.797 4.51-2.318.608-.616.895-1.232.859-1.884-.036-.615-.286-1.231-.68-1.774 2.613-1.413 5.548-2.68 8.733-3.803.323-.109.537-.326.645-.58a.892.892 0 0 0-.072-.688c-.143-.181-.358-.217-.68-.109Z"/></svg>