<svg width="150" height="36" fill="none" xmlns="http://www.w3.org/2000/svg"><path d="M12.418 21.998c-1.923 1.644-3.49 2.772-4.608 3.382-1.118.611-2.237.94-3.266.94-1.432 0-2.282-.705-2.505-2.114-.224-1.363-.09-3.383.492-5.966.537-2.584 1.297-5.732 2.237-9.35.358-1.362.716-2.771 1.118-4.274.135-.611.313-1.222.492-1.833L6.826.998c.09-.423 0-.751-.224-.892-.268-.141-.581-.141-.895 0-.313.14-.537.47-.67.892l-.493 1.785c-.134.611-.313 1.222-.447 1.833-.358 1.409-.716 2.771-1.074 4.04-1.119 4.275-1.969 7.892-2.55 10.758-.582 2.913-.627 5.12-.135 6.577.448 1.456 1.7 2.208 3.714 2.208 1.476 0 2.953-.423 4.34-1.221 1.387-.8 3.042-2.02 4.966-3.665.358-.329.537-.61.492-.94-.044-.328-.223-.516-.492-.657-.268-.094-.582 0-.94.282Z" fill="#000"/><path d="M27.675 22.092c-3.132 2.96-5.637 4.369-7.516 4.18-1.074-.14-1.61-.704-1.61-1.643-.046-.893.133-1.974.491-3.148l.09-.282c.044-.423 0-.705-.224-.845-.224-.141-.492-.141-.805-.047-.313.094-.537.328-.716.704-.76 1.457-1.432 2.584-1.969 3.336-.537.798-.94 1.315-1.253 1.55-.313.282-.537.423-.626.423-.045 0-.134 0-.179-.047a.245.245 0 0 1-.224-.141 1.052 1.052 0 0 1-.09-.47c0-.47.135-.986.404-1.597.223-.564.492-1.034.805-1.41.313-.375.537-.47.76-.281.224.235.537.282.85.14.314-.14.582-.375.761-.704.134-.329.134-.61-.09-.893-.67-.704-1.431-.798-2.281-.329-.85.47-1.566 1.222-2.148 2.302-.626 1.08-.94 2.208-.94 3.336.09 1.315.717 1.973 1.88 1.973 1.118 0 2.326-.94 3.624-2.772.134.987.492 1.692 1.074 2.114.581.423 1.342.658 2.326.658 2.372 0 5.28-1.644 8.68-4.886.313-.329.448-.657.403-.986a.828.828 0 0 0-.537-.564c-.313-.094-.627 0-.94.329Z" fill="#000"/><path d="M45.303 22.092c-3.087 2.96-5.592 4.369-7.471 4.18-1.03-.14-1.566-.657-1.611-1.502-.045-.846.09-1.833.403-2.913.044-.235.09-.423.134-.658.09-.423.045-.705-.18-.845-.223-.141-.491-.141-.805-.094-.313.094-.536.328-.76.704-1.834 3.57-3.49 5.356-5.056 5.356-.492 0-.805-.282-.895-.846-.09-.564-.044-1.221.134-1.973.18-.752.403-1.456.627-2.067.134-.423.134-.705-.09-.893-.223-.187-.537-.234-.85-.14-.313.093-.581.328-.76.751a12.413 12.413 0 0 0-.895 3.336c-.134 1.08 0 1.926.313 2.63.313.705.984 1.081 1.969 1.081.402 0 1.073-.188 1.924-.517.85-.329 1.834-1.174 2.908-2.443.044 1.034.403 1.785.984 2.255.582.47 1.387.705 2.416.705 2.371 0 5.28-1.644 8.635-4.886.313-.329.448-.657.403-.986-.045-.282-.224-.47-.492-.564-.313-.094-.627 0-.985.329Z" fill="#000"/><path d="M59.89 21.763c-1.209.705-2.417 1.221-3.67 1.456-1.297.282-2.237.376-2.863.235-.358-.094-.627-.282-.76-.61a6.917 6.917 0 0 1-.359-1.034c-.09-.517-.223-.94-.447-1.316-.224-.375-.671-.563-1.342-.563-.806 0-1.521.329-2.103.986a12.728 12.728 0 0 0-1.566 2.396c.134-.61.313-1.268.537-2.067.044-.423-.045-.704-.269-.845-.268-.141-.537-.141-.85 0-.313.14-.581.422-.716.845-.67 2.49-1.029 4.322-1.073 5.403-.09 1.127.223 1.69.984 1.69.492 0 .94-.234 1.253-.75.313-.47.626-1.128.94-1.974.178-.423.402-.892.715-1.503.268-.564.537-1.08.85-1.597.313-.47.582-.705.805-.705.135 0 .224.094.269.235.045.14.134.376.179.61.134.517.313 1.034.626 1.55.269.518.76.893 1.477 1.081.85.188 2.058.094 3.624-.235a14.782 14.782 0 0 0 4.43-1.738c.402-.235.58-.563.626-.892a.928.928 0 0 0-.358-.752c-.224-.141-.537-.141-.94.094Z" fill="#000"/><path d="M75.19 22.092c-3.131 2.96-5.637 4.369-7.516 4.18-1.074-.14-1.61-.704-1.61-1.643-.045-.893.134-1.974.492-3.148l.089-.282c.045-.423 0-.705-.224-.845-.223-.141-.492-.141-.805-.047-.313.094-.537.328-.716.704-.76 1.457-1.432 2.584-1.969 3.336-.536.798-.94 1.315-1.252 1.55-.313.282-.537.423-.627.423-.044 0-.134 0-.179-.047a.245.245 0 0 1-.223-.141 1.054 1.054 0 0 1-.09-.47c0-.47.134-.986.403-1.597.224-.564.492-1.034.805-1.41.313-.375.537-.47.76-.281.224.235.538.282.85.14.314-.14.583-.375.761-.704.135-.329.135-.61-.089-.893-.671-.704-1.432-.798-2.282-.329-.85.47-1.566 1.222-2.147 2.302-.627 1.08-.94 2.208-.94 3.336.09 1.315.716 1.973 1.88 1.973 1.118 0 2.326-.94 3.623-2.772.135.987.492 1.692 1.074 2.114.582.423 1.342.658 2.327.658 2.37 0 5.28-1.644 8.68-4.886.313-.329.447-.657.402-.986a.828.828 0 0 0-.537-.564c-.313-.094-.626 0-.94.329Z" fill="#000"/><path d="M94.966 21.904c-.313.235-.626.517-.94.752a47 47 0 0 1-3.265 2.442c-1.208.799-2.237 1.222-3.177 1.222-.582 0-.94-.188-1.118-.517-.224-.329-.314-.986-.314-1.88.045-.516 0-1.033-.044-1.596a2.908 2.908 0 0 0-.627-1.363c-.313-.376-.895-.563-1.655-.563-1.119 0-2.372.47-3.67 1.409a36.702 36.702 0 0 0-3.981 3.476c.224-.892.447-1.785.671-2.63.134-.517.269-.94.358-1.316.09-.423 0-.705-.224-.846-.268-.14-.581-.14-.895 0-.313.141-.536.423-.67.846-.135.423-.27.893-.403 1.41-.224.845-.403 1.69-.627 2.536a11.624 11.624 0 0 0-.358 2.02c-.044.611.135.94.537 1.08.358.142.85-.046 1.432-.61a74.922 74.922 0 0 1 4.027-3.805c1.297-1.128 2.416-1.691 3.31-1.691.403 0 .672.14.806.422.134.33.179.893.179 1.739-.045.517 0 1.08.09 1.644.089.61.313 1.08.715 1.503.403.423 1.03.611 1.969.611 1.253 0 2.55-.47 3.937-1.362a42.533 42.533 0 0 0 3.893-2.82c.313-.234.581-.469.894-.704.358-.329.537-.61.537-.94-.044-.328-.179-.516-.447-.657-.269-.141-.582-.047-.94.188Z" fill="#000"/><path d="M110.268 22.092c-3.132 2.96-5.638 4.369-7.517 4.18-1.073-.14-1.61-.704-1.61-1.643-.045-.893.134-1.974.492-3.148l.089-.282c.045-.423 0-.705-.223-.845-.224-.141-.493-.141-.806-.047-.313.094-.537.328-.716.704-.76 1.457-1.431 2.584-1.968 3.336-.537.798-.94 1.315-1.253 1.55-.313.282-.537.423-.626.423-.045 0-.135 0-.18-.047a.245.245 0 0 1-.223-.141 1.054 1.054 0 0 1-.09-.47c0-.47.135-.986.403-1.597.224-.564.492-1.034.805-1.41.314-.375.537-.47.761-.281.224.235.537.282.85.14.313-.14.582-.375.76-.704.135-.329.135-.61-.089-.893-.67-.704-1.431-.798-2.281-.329-.85.47-1.567 1.222-2.148 2.302-.626 1.08-.94 2.208-.94 3.336.09 1.315.716 1.973 1.88 1.973 1.118 0 2.326-.94 3.623-2.772.135.987.493 1.692 1.074 2.114.582.423 1.343.658 2.327.658 2.371 0 5.279-1.644 8.68-4.886.313-.329.447-.657.402-.986a.826.826 0 0 0-.537-.564c-.313-.094-.626 0-.939.329Z" fill="#000"/><path d="M112.058 18.991h-.09c-.224-.047-.403-.14-.492-.376-.134-.188-.134-.422-.045-.657.045-.188.09-.376.134-.517h.045c.09-.376.224-.799.448-1.222.134-.235.313-.47.536-.61.224-.141.448-.188.672-.141a.699.699 0 0 1 .492.376.788.788 0 0 1-.045.704l-.358 1.034-.179.564c-.089.234-.224.47-.447.61-.224.141-.448.235-.671.235Zm8.769 3.1c-3.087 2.96-5.593 4.37-7.472 4.182-.94-.141-1.476-.61-1.566-1.503-.089-.893.045-1.973.447-3.289.09-.517 0-.846-.223-.987-.224-.14-.537-.14-.85 0-.358.141-.627.47-.761.987-.358 1.268-.537 2.443-.537 3.43 0 .986.269 1.785.761 2.395.492.611 1.387.893 2.64.893 2.371 0 5.279-1.644 8.635-4.886.313-.329.447-.657.402-.986-.044-.282-.223-.47-.492-.564-.313-.094-.626 0-.984.329Z" fill="#000"/><path d="M133.131 21.998c-1.924 1.644-3.49 2.772-4.609 3.382-1.118.611-2.237.94-3.266.94-1.432 0-2.282-.705-2.505-2.114-.224-1.363-.09-3.383.492-5.966.537-2.584 1.297-5.732 2.237-9.35.358-1.362.716-2.771 1.118-4.274.135-.611.314-1.222.493-1.833l.447-1.785c.09-.423 0-.751-.224-.892-.268-.141-.581-.141-.895 0-.313.14-.536.47-.671.892l-.492 1.785c-.134.611-.313 1.222-.447 1.833-.358 1.409-.716 2.771-1.074 4.04-1.119 4.275-1.969 7.892-2.55 10.758-.582 2.913-.627 5.12-.134 6.577.447 1.456 1.7 2.208 3.713 2.208 1.477 0 2.953-.423 4.34-1.221 1.387-.8 3.042-2.02 4.966-3.665.358-.329.537-.61.492-.94-.044-.328-.223-.516-.492-.657-.268-.094-.581 0-.939.282Z" fill="#000"/><path d="M136.934 31.77c-1.432 1.315-2.64 2.067-3.624 2.254-.985.188-1.477.094-1.522-.328.045-.47.358-.987.94-1.55a17.404 17.404 0 0 1 1.924-1.645c.671-.517 1.253-.94 1.745-1.222.268.33.492.752.716 1.222.223.47.134.893-.179 1.268Zm12.08-10.242c-4.43 1.597-8.367 3.383-11.857 5.403-.313-.33-.581-.658-.894-.987a11.678 11.678 0 0 1-1.298-1.503c-.313-.517-.447-.987-.358-1.363.09-.375.269-.704.492-.94.492-.563 1.164-1.033 2.014-1.409.805-.375 1.521-.563 2.147-.563.582 0 .85.282.761.845-.09.423 0 .658.268.799.224.14.537.14.85 0 .314-.141.537-.376.672-.799.313-1.362-.045-2.208-.985-2.537-.939-.328-2.103-.235-3.49.282-1.387.517-2.595 1.316-3.579 2.443-1.208 1.55-1.387 3.1-.447 4.557.402.517.85 1.08 1.431 1.691.224.188.403.376.582.564a19.606 19.606 0 0 0-3.445 2.678c-1.163 1.08-1.834 2.208-1.969 3.382 0 1.363.806 1.974 2.461 1.927 1.611-.047 3.49-1.034 5.638-3.007.76-.799 1.118-1.597 1.073-2.443-.044-.799-.358-1.597-.85-2.302 3.266-1.832 6.935-3.476 10.917-4.933.403-.14.671-.423.805-.751.09-.33.045-.658-.089-.893-.179-.235-.447-.282-.85-.141Z" fill="#000"/></svg>