<svg width="169" height="40" fill="none" xmlns="http://www.w3.org/2000/svg"><path d="M13.992 24.442c-2.168 1.827-3.932 3.08-5.193 3.758-1.26.679-2.52 1.044-3.68 1.044-1.612 0-2.57-.783-2.822-2.349-.252-1.513-.101-3.758.554-6.629.605-2.87 1.462-6.368 2.52-10.387.404-1.514.807-3.08 1.26-4.75.152-.68.354-1.358.555-2.036l.504-1.984c.101-.47 0-.835-.252-.992-.302-.156-.655-.156-1.008 0-.353.157-.605.522-.756.992L5.12 3.093c-.152.678-.353 1.357-.504 2.036-.404 1.565-.807 3.08-1.21 4.489-1.26 4.75-2.218 8.769-2.874 11.953-.655 3.236-.705 5.69-.15 7.308.503 1.618 1.915 2.453 4.183 2.453 1.664 0 3.327-.47 4.89-1.357 1.562-.887 3.428-2.245 5.595-4.071.403-.366.605-.679.555-1.044-.05-.366-.252-.575-.555-.731-.302-.105-.655 0-1.059.313Z" fill="#000"/><path d="M31.18 24.546c-3.528 3.289-6.35 4.855-8.468 4.646-1.21-.157-1.814-.783-1.814-1.827-.05-.992.15-2.192.554-3.497l.1-.313c.051-.47 0-.783-.251-.94-.252-.156-.555-.156-.908-.052-.352.104-.605.365-.806.783-.857 1.618-1.613 2.87-2.218 3.706-.605.887-1.059 1.462-1.412 1.723-.352.313-.604.47-.705.47-.05 0-.152 0-.202-.053a.276.276 0 0 1-.252-.157c-.05-.104-.1-.26-.1-.521 0-.523.15-1.097.453-1.775.252-.627.554-1.149.907-1.566.353-.418.605-.522.857-.313.252.26.605.313.958.156a1.8 1.8 0 0 0 .857-.783c.151-.365.151-.678-.1-.992-.757-.782-1.614-.887-2.572-.365-.957.522-1.764 1.357-2.42 2.558-.705 1.2-1.058 2.453-1.058 3.706.1 1.462.807 2.192 2.117 2.192 1.26 0 2.622-1.044 4.083-3.08.152 1.097.555 1.88 1.21 2.35.655.47 1.512.73 2.621.73 2.672 0 5.949-1.827 9.78-5.428.352-.366.504-.731.453-1.097a.926.926 0 0 0-.605-.626c-.352-.104-.705 0-1.058.365Z" fill="#000"/><path d="M51.042 24.546c-3.478 3.289-6.301 4.855-8.418 4.646-1.16-.157-1.765-.73-1.815-1.67-.05-.94.1-2.036.454-3.237.05-.26.1-.47.15-.73.102-.47.051-.783-.2-.94-.253-.156-.555-.156-.908-.104-.353.104-.605.365-.857.783-2.067 3.967-3.932 5.95-5.696 5.95-.555 0-.908-.313-1.009-.94-.1-.626-.05-1.356.152-2.192.201-.835.453-1.618.705-2.296.152-.47.152-.783-.1-.992-.252-.209-.605-.261-.958-.157-.353.105-.655.366-.857.835a13.64 13.64 0 0 0-1.008 3.707c-.151 1.2 0 2.14.353 2.923.352.783 1.109 1.2 2.218 1.2.453 0 1.21-.209 2.167-.574.958-.365 2.067-1.305 3.277-2.714.05 1.148.453 1.983 1.109 2.505.655.522 1.562.783 2.722.783 2.671 0 5.948-1.827 9.729-5.428.352-.366.504-.731.453-1.097-.05-.313-.252-.522-.554-.626-.353-.104-.706 0-1.11.365Z" fill="#000"/><path d="M67.475 24.181c-1.361.783-2.722 1.357-4.133 1.618-1.462.313-2.52.418-3.227.261-.403-.104-.705-.313-.857-.678-.15-.366-.302-.731-.403-1.149-.1-.574-.252-1.044-.504-1.461-.252-.418-.756-.627-1.512-.627-.907 0-1.714.366-2.37 1.096-.655.783-1.26 1.67-1.764 2.663.152-.679.353-1.41.605-2.297.05-.47-.05-.783-.302-.94-.303-.156-.605-.156-.958 0-.353.157-.655.47-.806.94-.757 2.766-1.16 4.802-1.21 6.003-.101 1.252.252 1.879 1.109 1.879.554 0 1.058-.261 1.411-.835.353-.522.706-1.253 1.059-2.193.201-.47.453-.991.806-1.67.303-.626.605-1.2.958-1.775.353-.522.655-.783.907-.783.152 0 .252.105.303.261.05.157.151.418.201.679.152.574.353 1.148.706 1.722.303.575.857.992 1.664 1.2.957.21 2.318.105 4.083-.26a16.794 16.794 0 0 0 4.99-1.931c.454-.261.656-.627.706-.992 0-.366-.151-.627-.403-.835-.252-.157-.605-.157-1.059.104Z" fill="#000"/><path d="M84.715 24.546c-3.529 3.289-6.352 4.855-8.469 4.646-1.21-.157-1.815-.783-1.815-1.827-.05-.992.152-2.192.555-3.497l.1-.313c.051-.47 0-.783-.251-.94-.252-.156-.555-.156-.908-.052-.353.104-.605.365-.806.783-.857 1.618-1.613 2.87-2.218 3.706-.605.887-1.059 1.462-1.412 1.723-.353.313-.605.47-.705.47-.05 0-.152 0-.202-.053a.276.276 0 0 1-.252-.157c-.05-.104-.1-.26-.1-.521 0-.523.15-1.097.453-1.775.252-.627.554-1.149.907-1.566.353-.418.605-.522.857-.313.252.26.605.313.958.156.353-.156.655-.417.857-.783.151-.365.151-.678-.101-.992-.756-.782-1.613-.887-2.57-.365-.959.522-1.765 1.357-2.42 2.558-.706 1.2-1.059 2.453-1.059 3.706.1 1.462.807 2.192 2.117 2.192 1.26 0 2.621-1.044 4.083-3.08.152 1.097.555 1.88 1.21 2.35.655.47 1.512.73 2.621.73 2.672 0 5.949-1.827 9.78-5.428.353-.366.504-.731.453-1.097a.926.926 0 0 0-.605-.626c-.352-.104-.705 0-1.058.365Z" fill="#000"/><path d="M106.995 24.338c-.352.26-.705.574-1.058.835a52.96 52.96 0 0 1-3.68 2.714c-1.361.887-2.52 1.357-3.579 1.357-.655 0-1.059-.209-1.26-.574-.252-.365-.353-1.096-.353-2.088.05-.574 0-1.148-.05-1.775a3.211 3.211 0 0 0-.706-1.513c-.353-.418-1.008-.627-1.865-.627-1.26 0-2.672.522-4.134 1.566a41.197 41.197 0 0 0-4.486 3.863c.252-.992.504-1.984.756-2.923.151-.574.302-1.044.403-1.462.101-.47 0-.783-.252-.94-.302-.156-.655-.156-1.008 0-.353.157-.605.47-.756.94-.151.47-.303.992-.454 1.566-.252.94-.454 1.88-.706 2.819-.252.94-.352 1.67-.403 2.244-.05.679.151 1.044.605 1.201.403.157.958-.052 1.613-.679a83.966 83.966 0 0 1 4.537-4.228c1.462-1.252 2.722-1.879 3.73-1.879.454 0 .756.157.907.47.152.365.202.992.202 1.931-.05.575 0 1.2.101 1.827.1.679.353 1.2.806 1.67.454.47 1.16.68 2.219.68 1.41 0 2.873-.523 4.435-1.514a47.895 47.895 0 0 0 4.386-3.132c.353-.261.655-.522 1.008-.783.403-.366.605-.679.605-1.044-.05-.366-.202-.575-.504-.731-.302-.157-.655-.052-1.059.209Z" fill="#000"/><path d="M124.235 24.546c-3.528 3.289-6.351 4.855-8.469 4.646-1.209-.157-1.814-.783-1.814-1.827-.051-.992.151-2.192.554-3.497l.101-.313c.05-.47 0-.783-.252-.94-.252-.156-.554-.156-.907-.052-.353.104-.605.365-.807.783-.857 1.618-1.613 2.87-2.218 3.706-.605.887-1.058 1.462-1.411 1.723-.353.313-.605.47-.706.47-.05 0-.151 0-.202-.053a.277.277 0 0 1-.252-.157c-.05-.104-.1-.26-.1-.521 0-.523.151-1.097.453-1.775.252-.627.555-1.149.908-1.566.352-.418.604-.522.856-.313.253.26.605.313.958.156.353-.156.656-.417.857-.783.151-.365.151-.678-.101-.992-.756-.782-1.613-.887-2.57-.365-.958.522-1.765 1.357-2.42 2.558-.706 1.2-1.059 2.453-1.059 3.706.101 1.462.807 2.192 2.118 2.192 1.26 0 2.621-1.044 4.083-3.08.151 1.097.554 1.88 1.209 2.35.656.47 1.513.73 2.622.73 2.671 0 5.948-1.827 9.779-5.428.353-.366.504-.731.454-1.097a.927.927 0 0 0-.605-.626c-.353-.104-.706 0-1.059.365Z" fill="#000"/><path d="M126.251 21.101h-.1c-.252-.052-.454-.156-.555-.417-.151-.21-.151-.47-.05-.731.05-.209.101-.418.151-.574h.05c.101-.418.252-.888.504-1.357.152-.261.353-.522.605-.679.252-.157.504-.209.756-.157a.783.783 0 0 1 .555.418.863.863 0 0 1-.05.783l-.404 1.148-.201.627c-.101.26-.252.522-.504.678-.252.157-.504.261-.757.261Zm9.881 3.445c-3.479 3.289-6.302 4.855-8.419 4.646-1.058-.157-1.663-.678-1.764-1.67-.101-.992.05-2.193.504-3.654.101-.574 0-.94-.252-1.096-.252-.157-.605-.157-.958 0-.403.156-.705.522-.857 1.096-.403 1.41-.605 2.714-.605 3.81s.303 1.984.857 2.662c.555.679 1.563.992 2.974.992 2.672 0 5.949-1.827 9.729-5.428.353-.366.504-.731.454-1.097-.05-.313-.252-.522-.554-.626-.353-.104-.706 0-1.109.365Z" fill="#000"/><path d="M149.994 24.442c-2.168 1.827-3.932 3.08-5.192 3.758-1.26.679-2.521 1.044-3.68 1.044-1.613 0-2.571-.783-2.823-2.349-.252-1.513-.101-3.758.555-6.629.605-2.87 1.461-6.368 2.52-10.387.403-1.514.807-3.08 1.26-4.75.151-.68.353-1.358.555-2.036l.504-1.984c.101-.47 0-.835-.252-.992-.303-.156-.656-.156-1.008 0-.353.157-.605.522-.757.992l-.554 1.984c-.151.678-.353 1.357-.504 2.036-.403 1.565-.807 3.08-1.21 4.489-1.26 4.75-2.218 8.769-2.873 11.953-.655 3.236-.706 5.69-.151 7.308.504 1.618 1.915 2.453 4.184 2.453 1.663 0 3.326-.47 4.889-1.357 1.563-.887 3.428-2.245 5.595-4.071.404-.366.605-.679.555-1.044-.05-.366-.252-.575-.555-.731-.302-.105-.655 0-1.058.313Z" fill="#000"/><path d="M154.279 35.3c-1.613 1.46-2.974 2.296-4.083 2.505-1.109.209-1.664.104-1.714-.365.05-.523.403-1.097 1.058-1.723.656-.627 1.361-1.253 2.168-1.827.756-.574 1.411-1.044 1.966-1.357.302.365.554.835.806 1.357s.152.992-.201 1.41Zm13.61-11.38c-4.99 1.775-9.426 3.758-13.358 6.003-.353-.365-.656-.73-1.008-1.096a13.027 13.027 0 0 1-1.462-1.67c-.353-.575-.504-1.097-.404-1.514.101-.418.303-.783.555-1.044.554-.627 1.311-1.149 2.268-1.566.908-.418 1.714-.627 2.42-.627.655 0 .958.314.857.94-.101.47 0 .73.302.887.252.157.605.157.958 0 .353-.156.605-.417.756-.887.353-1.514-.05-2.454-1.109-2.819-1.058-.365-2.369-.26-3.932.313-1.562.575-2.923 1.462-4.032 2.715-1.361 1.722-1.563 3.445-.504 5.063.453.574.957 1.2 1.613 1.88.252.208.453.417.655.625a22.081 22.081 0 0 0-3.882 2.976c-1.31 1.2-2.066 2.453-2.218 3.758 0 1.514.908 2.192 2.773 2.14 1.815-.052 3.932-1.148 6.351-3.34.857-.888 1.261-1.775 1.21-2.715-.05-.887-.403-1.775-.958-2.558 3.68-2.035 7.814-3.862 12.3-5.48a1.48 1.48 0 0 0 .908-.836c.1-.365.05-.73-.101-.991-.202-.261-.504-.314-.958-.157Z" fill="#000"/></svg>